<mxfile host="Electron" modified="2024-02-29T13:50:31.069Z" agent="Mozilla/5.0 (Windows NT 10.0; Win64; x64) AppleWebKit/537.36 (KHTML, like Gecko) draw.io/21.6.5 Chrome/114.0.5735.243 Electron/25.3.1 Safari/537.36" etag="l0rrgp8c4F2bWaNkojDz" version="21.6.5" type="device">
  <diagram name="Page-1" id="W10y5Xv-MgBhDv2cQMVb">
    <mxGraphModel dx="1290" dy="746" grid="1" gridSize="8" guides="0" tooltips="1" connect="1" arrows="0" fold="1" page="1" pageScale="1" pageWidth="2560" pageHeight="1440" background="#ffffff" math="0" shadow="0">
      <root>
        <mxCell id="0" />
        <mxCell id="1" parent="0" />
        <mxCell id="dm_DR9h1OE6j43ScIx_w-1" value="Interconnect" style="rounded=0;whiteSpace=wrap;html=1;verticalAlign=top;fontSize=24;fontStyle=1" parent="1" vertex="1">
          <mxGeometry x="128" y="768" width="896" height="448" as="geometry" />
        </mxCell>
        <mxCell id="4zyIvn0-0Vn7ysodNtMI-83" value="Serial Structure" style="rounded=0;whiteSpace=wrap;html=1;verticalAlign=top;" parent="1" vertex="1">
          <mxGeometry x="128" y="1536" width="224" height="192" as="geometry" />
        </mxCell>
        <mxCell id="4zyIvn0-0Vn7ysodNtMI-82" value="Parallel Structure" style="rounded=0;whiteSpace=wrap;html=1;verticalAlign=top;" parent="1" vertex="1">
          <mxGeometry x="128" y="1856" width="288" height="352" as="geometry" />
        </mxCell>
        <mxCell id="4zyIvn0-0Vn7ysodNtMI-51" value="General Interconnect" style="rounded=0;whiteSpace=wrap;html=1;verticalAlign=top;" parent="1" vertex="1">
          <mxGeometry x="112" y="32" width="544" height="480" as="geometry" />
        </mxCell>
        <mxCell id="4zyIvn0-0Vn7ysodNtMI-34" style="edgeStyle=orthogonalEdgeStyle;rounded=0;orthogonalLoop=1;jettySize=auto;html=1;exitX=0.5;exitY=1;exitDx=0;exitDy=0;entryX=0;entryY=0.5;entryDx=0;entryDy=0;" parent="1" source="x5MmImR9Tws4CZoo8QPT-1" target="x5MmImR9Tws4CZoo8QPT-2" edge="1">
          <mxGeometry relative="1" as="geometry" />
        </mxCell>
        <mxCell id="x5MmImR9Tws4CZoo8QPT-1" value="Arbiter" style="rounded=0;whiteSpace=wrap;html=1;" parent="1" vertex="1">
          <mxGeometry x="288" y="96" width="128" height="64" as="geometry" />
        </mxCell>
        <mxCell id="4zyIvn0-0Vn7ysodNtMI-36" style="edgeStyle=orthogonalEdgeStyle;rounded=0;orthogonalLoop=1;jettySize=auto;html=1;exitX=0.5;exitY=0;exitDx=0;exitDy=0;strokeWidth=2;entryX=0.5;entryY=1;entryDx=0;entryDy=0;" parent="1" source="x5MmImR9Tws4CZoo8QPT-2" target="4zyIvn0-0Vn7ysodNtMI-35" edge="1">
          <mxGeometry relative="1" as="geometry">
            <mxPoint x="464" y="320" as="targetPoint" />
          </mxGeometry>
        </mxCell>
        <mxCell id="x5MmImR9Tws4CZoo8QPT-2" value="MUX" style="shape=trapezoid;perimeter=trapezoidPerimeter;whiteSpace=wrap;html=1;fixedSize=1;rotation=90;" parent="1" vertex="1">
          <mxGeometry x="336" y="272" width="128" height="32" as="geometry" />
        </mxCell>
        <mxCell id="iYGyc5kOzqzwwhRVOcrO-2" style="edgeStyle=orthogonalEdgeStyle;rounded=0;orthogonalLoop=1;jettySize=auto;html=1;exitX=0;exitY=0.5;exitDx=0;exitDy=0;entryX=0;entryY=0.5;entryDx=0;entryDy=0;strokeWidth=2;" parent="1" target="4zyIvn0-0Vn7ysodNtMI-10" edge="1">
          <mxGeometry relative="1" as="geometry">
            <mxPoint x="64" y="207.90476190476193" as="sourcePoint" />
          </mxGeometry>
        </mxCell>
        <mxCell id="4zyIvn0-0Vn7ysodNtMI-10" value="&lt;u&gt;slave[0]&lt;/u&gt;" style="rounded=1;whiteSpace=wrap;html=1;fillColor=#E6E6E6;verticalAlign=top;" parent="1" vertex="1">
          <mxGeometry x="96" y="128" width="64" height="160" as="geometry" />
        </mxCell>
        <mxCell id="4zyIvn0-0Vn7ysodNtMI-22" style="edgeStyle=orthogonalEdgeStyle;rounded=0;orthogonalLoop=1;jettySize=auto;html=1;exitX=1;exitY=0.5;exitDx=0;exitDy=0;entryX=0;entryY=0.25;entryDx=0;entryDy=0;" parent="1" source="4zyIvn0-0Vn7ysodNtMI-11" target="x5MmImR9Tws4CZoo8QPT-1" edge="1">
          <mxGeometry relative="1" as="geometry">
            <mxPoint x="224" y="192" as="targetPoint" />
            <Array as="points">
              <mxPoint x="224" y="192" />
              <mxPoint x="224" y="112" />
            </Array>
          </mxGeometry>
        </mxCell>
        <mxCell id="4zyIvn0-0Vn7ysodNtMI-11" value="src" style="text;html=1;strokeColor=none;fillColor=none;align=center;verticalAlign=middle;whiteSpace=wrap;rounded=0;" parent="1" vertex="1">
          <mxGeometry x="112" y="176" width="32" height="32" as="geometry" />
        </mxCell>
        <mxCell id="4zyIvn0-0Vn7ysodNtMI-25" style="edgeStyle=orthogonalEdgeStyle;rounded=0;orthogonalLoop=1;jettySize=auto;html=1;exitX=1;exitY=0.5;exitDx=0;exitDy=0;strokeWidth=2;entryX=0.25;entryY=1;entryDx=0;entryDy=0;" parent="1" source="4zyIvn0-0Vn7ysodNtMI-12" target="x5MmImR9Tws4CZoo8QPT-2" edge="1">
          <mxGeometry relative="1" as="geometry">
            <mxPoint x="288" y="256.05555555555554" as="targetPoint" />
          </mxGeometry>
        </mxCell>
        <mxCell id="4zyIvn0-0Vn7ysodNtMI-12" value="data" style="text;html=1;strokeColor=none;fillColor=none;align=center;verticalAlign=middle;whiteSpace=wrap;rounded=0;" parent="1" vertex="1">
          <mxGeometry x="112" y="240" width="32" height="32" as="geometry" />
        </mxCell>
        <mxCell id="4zyIvn0-0Vn7ysodNtMI-23" style="edgeStyle=orthogonalEdgeStyle;rounded=0;orthogonalLoop=1;jettySize=auto;html=1;exitX=1;exitY=0.5;exitDx=0;exitDy=0;endArrow=diamondThin;endFill=0;" parent="1" source="4zyIvn0-0Vn7ysodNtMI-13" edge="1">
          <mxGeometry relative="1" as="geometry">
            <mxPoint x="176.0000000000001" y="192" as="targetPoint" />
          </mxGeometry>
        </mxCell>
        <mxCell id="4zyIvn0-0Vn7ysodNtMI-13" value="dst" style="text;html=1;strokeColor=none;fillColor=none;align=center;verticalAlign=middle;whiteSpace=wrap;rounded=0;" parent="1" vertex="1">
          <mxGeometry x="112" y="208" width="32" height="32" as="geometry" />
        </mxCell>
        <mxCell id="iYGyc5kOzqzwwhRVOcrO-3" style="edgeStyle=orthogonalEdgeStyle;rounded=0;orthogonalLoop=1;jettySize=auto;html=1;exitX=0;exitY=0.5;exitDx=0;exitDy=0;entryX=0;entryY=0.5;entryDx=0;entryDy=0;strokeWidth=2;" parent="1" target="4zyIvn0-0Vn7ysodNtMI-18" edge="1">
          <mxGeometry relative="1" as="geometry">
            <mxPoint x="64" y="399.80952380952374" as="sourcePoint" />
          </mxGeometry>
        </mxCell>
        <mxCell id="4zyIvn0-0Vn7ysodNtMI-18" value="&lt;u&gt;slave[1]&lt;/u&gt;" style="rounded=1;whiteSpace=wrap;html=1;fillColor=#E6E6E6;verticalAlign=top;" parent="1" vertex="1">
          <mxGeometry x="96" y="320" width="64" height="160" as="geometry" />
        </mxCell>
        <mxCell id="4zyIvn0-0Vn7ysodNtMI-26" style="edgeStyle=orthogonalEdgeStyle;rounded=0;orthogonalLoop=1;jettySize=auto;html=1;exitX=1;exitY=0.5;exitDx=0;exitDy=0;entryX=0;entryY=0.75;entryDx=0;entryDy=0;" parent="1" source="4zyIvn0-0Vn7ysodNtMI-19" target="x5MmImR9Tws4CZoo8QPT-1" edge="1">
          <mxGeometry relative="1" as="geometry">
            <mxPoint x="240" y="384.2380952380952" as="targetPoint" />
            <Array as="points">
              <mxPoint x="240" y="384" />
              <mxPoint x="240" y="144" />
            </Array>
          </mxGeometry>
        </mxCell>
        <mxCell id="4zyIvn0-0Vn7ysodNtMI-19" value="src" style="text;html=1;strokeColor=none;fillColor=none;align=center;verticalAlign=middle;whiteSpace=wrap;rounded=0;" parent="1" vertex="1">
          <mxGeometry x="112" y="368" width="32" height="32" as="geometry" />
        </mxCell>
        <mxCell id="4zyIvn0-0Vn7ysodNtMI-28" style="edgeStyle=orthogonalEdgeStyle;rounded=0;orthogonalLoop=1;jettySize=auto;html=1;exitX=1;exitY=0.5;exitDx=0;exitDy=0;strokeWidth=2;entryX=0.75;entryY=1;entryDx=0;entryDy=0;" parent="1" source="4zyIvn0-0Vn7ysodNtMI-20" target="x5MmImR9Tws4CZoo8QPT-2" edge="1">
          <mxGeometry relative="1" as="geometry">
            <mxPoint x="240" y="448.04761904761904" as="targetPoint" />
            <Array as="points">
              <mxPoint x="352" y="448" />
              <mxPoint x="352" y="320" />
            </Array>
          </mxGeometry>
        </mxCell>
        <mxCell id="4zyIvn0-0Vn7ysodNtMI-20" value="data" style="text;html=1;strokeColor=none;fillColor=none;align=center;verticalAlign=middle;whiteSpace=wrap;rounded=0;" parent="1" vertex="1">
          <mxGeometry x="112" y="432" width="32" height="32" as="geometry" />
        </mxCell>
        <mxCell id="4zyIvn0-0Vn7ysodNtMI-27" style="edgeStyle=orthogonalEdgeStyle;rounded=0;orthogonalLoop=1;jettySize=auto;html=1;exitX=1;exitY=0.5;exitDx=0;exitDy=0;endArrow=diamondThin;endFill=0;" parent="1" source="4zyIvn0-0Vn7ysodNtMI-21" edge="1">
          <mxGeometry relative="1" as="geometry">
            <mxPoint x="176" y="384" as="targetPoint" />
          </mxGeometry>
        </mxCell>
        <mxCell id="4zyIvn0-0Vn7ysodNtMI-21" value="dst" style="text;html=1;strokeColor=none;fillColor=none;align=center;verticalAlign=middle;whiteSpace=wrap;rounded=0;" parent="1" vertex="1">
          <mxGeometry x="112" y="400" width="32" height="32" as="geometry" />
        </mxCell>
        <mxCell id="4zyIvn0-0Vn7ysodNtMI-24" value="routing" style="text;html=1;strokeColor=none;fillColor=none;align=center;verticalAlign=middle;whiteSpace=wrap;rounded=0;" parent="1" vertex="1">
          <mxGeometry x="176" y="176" width="48" height="16" as="geometry" />
        </mxCell>
        <mxCell id="4zyIvn0-0Vn7ysodNtMI-29" value="" style="endArrow=diamondThin;html=1;rounded=0;startArrow=oval;startFill=1;endFill=0;" parent="1" edge="1">
          <mxGeometry width="50" height="50" relative="1" as="geometry">
            <mxPoint x="224" y="192" as="sourcePoint" />
            <mxPoint x="224" y="256" as="targetPoint" />
          </mxGeometry>
        </mxCell>
        <mxCell id="4zyIvn0-0Vn7ysodNtMI-30" value="interface" style="text;html=1;strokeColor=none;fillColor=none;align=center;verticalAlign=middle;whiteSpace=wrap;rounded=0;" parent="1" vertex="1">
          <mxGeometry x="272" y="240" width="48" height="16" as="geometry" />
        </mxCell>
        <mxCell id="4zyIvn0-0Vn7ysodNtMI-31" value="" style="endArrow=diamondThin;html=1;rounded=0;startArrow=oval;startFill=1;endFill=0;" parent="1" edge="1">
          <mxGeometry width="50" height="50" relative="1" as="geometry">
            <mxPoint x="240" y="384" as="sourcePoint" />
            <mxPoint x="240" y="448" as="targetPoint" />
          </mxGeometry>
        </mxCell>
        <mxCell id="4zyIvn0-0Vn7ysodNtMI-32" value="routing" style="text;html=1;strokeColor=none;fillColor=none;align=center;verticalAlign=middle;whiteSpace=wrap;rounded=0;" parent="1" vertex="1">
          <mxGeometry x="176" y="368" width="48" height="16" as="geometry" />
        </mxCell>
        <mxCell id="4zyIvn0-0Vn7ysodNtMI-33" value="interface" style="text;html=1;strokeColor=none;fillColor=none;align=center;verticalAlign=middle;whiteSpace=wrap;rounded=0;" parent="1" vertex="1">
          <mxGeometry x="272" y="432" width="48" height="16" as="geometry" />
        </mxCell>
        <mxCell id="4zyIvn0-0Vn7ysodNtMI-45" style="edgeStyle=orthogonalEdgeStyle;rounded=0;orthogonalLoop=1;jettySize=auto;html=1;entryX=0;entryY=0.5;entryDx=0;entryDy=0;strokeWidth=2;" parent="1" target="4zyIvn0-0Vn7ysodNtMI-37" edge="1">
          <mxGeometry relative="1" as="geometry">
            <mxPoint x="512" y="256" as="sourcePoint" />
            <Array as="points">
              <mxPoint x="544" y="256" />
              <mxPoint x="544" y="208" />
            </Array>
          </mxGeometry>
        </mxCell>
        <mxCell id="4zyIvn0-0Vn7ysodNtMI-46" style="edgeStyle=orthogonalEdgeStyle;rounded=0;orthogonalLoop=1;jettySize=auto;html=1;entryX=0;entryY=0.5;entryDx=0;entryDy=0;strokeWidth=2;" parent="1" target="4zyIvn0-0Vn7ysodNtMI-41" edge="1">
          <mxGeometry relative="1" as="geometry">
            <mxPoint x="512" y="320" as="sourcePoint" />
            <Array as="points">
              <mxPoint x="544" y="320" />
              <mxPoint x="544" y="400" />
            </Array>
          </mxGeometry>
        </mxCell>
        <mxCell id="4zyIvn0-0Vn7ysodNtMI-47" style="edgeStyle=orthogonalEdgeStyle;rounded=0;orthogonalLoop=1;jettySize=auto;html=1;exitX=1;exitY=0.5;exitDx=0;exitDy=0;startArrow=diamondThin;startFill=0;entryX=0;entryY=0.5;entryDx=0;entryDy=0;" parent="1" target="4zyIvn0-0Vn7ysodNtMI-35" edge="1">
          <mxGeometry relative="1" as="geometry">
            <mxPoint x="528" y="192" as="targetPoint" />
            <mxPoint x="448" y="288" as="sourcePoint" />
            <Array as="points">
              <mxPoint x="448" y="208" />
              <mxPoint x="496" y="208" />
            </Array>
          </mxGeometry>
        </mxCell>
        <mxCell id="4zyIvn0-0Vn7ysodNtMI-35" value="DEMUX" style="shape=trapezoid;perimeter=trapezoidPerimeter;whiteSpace=wrap;html=1;fixedSize=1;rotation=90;horizontal=1;flipV=1;" parent="1" vertex="1">
          <mxGeometry x="432" y="272" width="128" height="32" as="geometry" />
        </mxCell>
        <mxCell id="iYGyc5kOzqzwwhRVOcrO-4" style="edgeStyle=orthogonalEdgeStyle;rounded=0;orthogonalLoop=1;jettySize=auto;html=1;exitX=1;exitY=0.5;exitDx=0;exitDy=0;strokeWidth=2;" parent="1" source="4zyIvn0-0Vn7ysodNtMI-37" edge="1">
          <mxGeometry relative="1" as="geometry">
            <mxPoint x="704" y="207.90476190476193" as="targetPoint" />
          </mxGeometry>
        </mxCell>
        <mxCell id="4zyIvn0-0Vn7ysodNtMI-37" value="&lt;u&gt;master[0]&lt;/u&gt;" style="rounded=1;whiteSpace=wrap;html=1;fillColor=#E6E6E6;verticalAlign=top;" parent="1" vertex="1">
          <mxGeometry x="608" y="128" width="64" height="160" as="geometry" />
        </mxCell>
        <mxCell id="4zyIvn0-0Vn7ysodNtMI-38" value="src" style="text;html=1;strokeColor=none;fillColor=none;align=center;verticalAlign=middle;whiteSpace=wrap;rounded=0;" parent="1" vertex="1">
          <mxGeometry x="624" y="176" width="32" height="32" as="geometry" />
        </mxCell>
        <mxCell id="4zyIvn0-0Vn7ysodNtMI-39" value="data" style="text;html=1;strokeColor=none;fillColor=none;align=center;verticalAlign=middle;whiteSpace=wrap;rounded=0;" parent="1" vertex="1">
          <mxGeometry x="624" y="240" width="32" height="32" as="geometry" />
        </mxCell>
        <mxCell id="4zyIvn0-0Vn7ysodNtMI-40" value="dst" style="text;html=1;strokeColor=none;fillColor=none;align=center;verticalAlign=middle;whiteSpace=wrap;rounded=0;" parent="1" vertex="1">
          <mxGeometry x="624" y="208" width="32" height="32" as="geometry" />
        </mxCell>
        <mxCell id="iYGyc5kOzqzwwhRVOcrO-5" style="edgeStyle=orthogonalEdgeStyle;rounded=0;orthogonalLoop=1;jettySize=auto;html=1;exitX=1;exitY=0.5;exitDx=0;exitDy=0;strokeWidth=2;" parent="1" source="4zyIvn0-0Vn7ysodNtMI-41" edge="1">
          <mxGeometry relative="1" as="geometry">
            <mxPoint x="704" y="399.80952380952374" as="targetPoint" />
          </mxGeometry>
        </mxCell>
        <mxCell id="4zyIvn0-0Vn7ysodNtMI-41" value="&lt;u&gt;master[1]&lt;/u&gt;" style="rounded=1;whiteSpace=wrap;html=1;fillColor=#E6E6E6;verticalAlign=top;" parent="1" vertex="1">
          <mxGeometry x="608" y="320" width="64" height="160" as="geometry" />
        </mxCell>
        <mxCell id="4zyIvn0-0Vn7ysodNtMI-42" value="src" style="text;html=1;strokeColor=none;fillColor=none;align=center;verticalAlign=middle;whiteSpace=wrap;rounded=0;" parent="1" vertex="1">
          <mxGeometry x="624" y="368" width="32" height="32" as="geometry" />
        </mxCell>
        <mxCell id="4zyIvn0-0Vn7ysodNtMI-43" value="data" style="text;html=1;strokeColor=none;fillColor=none;align=center;verticalAlign=middle;whiteSpace=wrap;rounded=0;" parent="1" vertex="1">
          <mxGeometry x="624" y="432" width="32" height="32" as="geometry" />
        </mxCell>
        <mxCell id="4zyIvn0-0Vn7ysodNtMI-44" value="dst" style="text;html=1;strokeColor=none;fillColor=none;align=center;verticalAlign=middle;whiteSpace=wrap;rounded=0;" parent="1" vertex="1">
          <mxGeometry x="624" y="400" width="32" height="32" as="geometry" />
        </mxCell>
        <mxCell id="4zyIvn0-0Vn7ysodNtMI-48" value="dst" style="text;html=1;strokeColor=none;fillColor=none;align=center;verticalAlign=middle;whiteSpace=wrap;rounded=0;" parent="1" vertex="1">
          <mxGeometry x="448" y="192" width="48" height="16" as="geometry" />
        </mxCell>
        <mxCell id="4zyIvn0-0Vn7ysodNtMI-57" style="edgeStyle=orthogonalEdgeStyle;rounded=0;orthogonalLoop=1;jettySize=auto;html=1;exitX=0.5;exitY=0;exitDx=0;exitDy=0;strokeWidth=1;entryX=0.5;entryY=1;entryDx=0;entryDy=0;" parent="1" source="4zyIvn0-0Vn7ysodNtMI-58" target="4zyIvn0-0Vn7ysodNtMI-60" edge="1">
          <mxGeometry relative="1" as="geometry">
            <mxPoint x="256" y="1664" as="targetPoint" />
          </mxGeometry>
        </mxCell>
        <mxCell id="4zyIvn0-0Vn7ysodNtMI-61" style="edgeStyle=orthogonalEdgeStyle;rounded=0;orthogonalLoop=1;jettySize=auto;html=1;exitX=0.25;exitY=1;exitDx=0;exitDy=0;entryX=0.25;entryY=1;entryDx=0;entryDy=0;" parent="1" target="4zyIvn0-0Vn7ysodNtMI-58" edge="1">
          <mxGeometry relative="1" as="geometry">
            <mxPoint x="112" y="1600" as="sourcePoint" />
          </mxGeometry>
        </mxCell>
        <mxCell id="4zyIvn0-0Vn7ysodNtMI-62" style="edgeStyle=orthogonalEdgeStyle;rounded=0;orthogonalLoop=1;jettySize=auto;html=1;exitX=0.75;exitY=1;exitDx=0;exitDy=0;entryX=0.75;entryY=1;entryDx=0;entryDy=0;" parent="1" target="4zyIvn0-0Vn7ysodNtMI-58" edge="1">
          <mxGeometry relative="1" as="geometry">
            <mxPoint x="112" y="1664" as="sourcePoint" />
          </mxGeometry>
        </mxCell>
        <mxCell id="4zyIvn0-0Vn7ysodNtMI-58" value="MUX" style="shape=trapezoid;perimeter=trapezoidPerimeter;whiteSpace=wrap;html=1;fixedSize=1;rotation=90;" parent="1" vertex="1">
          <mxGeometry x="128" y="1616" width="128" height="32" as="geometry" />
        </mxCell>
        <mxCell id="4zyIvn0-0Vn7ysodNtMI-63" style="edgeStyle=orthogonalEdgeStyle;rounded=0;orthogonalLoop=1;jettySize=auto;html=1;exitX=0.25;exitY=0;exitDx=0;exitDy=0;" parent="1" source="4zyIvn0-0Vn7ysodNtMI-60" edge="1">
          <mxGeometry relative="1" as="geometry">
            <mxPoint x="368" y="1600" as="targetPoint" />
          </mxGeometry>
        </mxCell>
        <mxCell id="4zyIvn0-0Vn7ysodNtMI-64" style="edgeStyle=orthogonalEdgeStyle;rounded=0;orthogonalLoop=1;jettySize=auto;html=1;exitX=0.75;exitY=0;exitDx=0;exitDy=0;" parent="1" source="4zyIvn0-0Vn7ysodNtMI-60" edge="1">
          <mxGeometry relative="1" as="geometry">
            <mxPoint x="368" y="1664" as="targetPoint" />
          </mxGeometry>
        </mxCell>
        <mxCell id="4zyIvn0-0Vn7ysodNtMI-60" value="DEMUX" style="shape=trapezoid;perimeter=trapezoidPerimeter;whiteSpace=wrap;html=1;fixedSize=1;rotation=90;horizontal=1;flipV=1;" parent="1" vertex="1">
          <mxGeometry x="224" y="1616" width="128" height="32" as="geometry" />
        </mxCell>
        <mxCell id="4zyIvn0-0Vn7ysodNtMI-65" style="edgeStyle=orthogonalEdgeStyle;rounded=0;orthogonalLoop=1;jettySize=auto;html=1;exitX=0.5;exitY=0;exitDx=0;exitDy=0;strokeWidth=1;entryX=0.5;entryY=1;entryDx=0;entryDy=0;" parent="1" target="4zyIvn0-0Vn7ysodNtMI-71" edge="1">
          <mxGeometry relative="1" as="geometry">
            <mxPoint x="160" y="1984" as="targetPoint" />
            <mxPoint x="112" y="1952" as="sourcePoint" />
          </mxGeometry>
        </mxCell>
        <mxCell id="4zyIvn0-0Vn7ysodNtMI-76" style="edgeStyle=orthogonalEdgeStyle;rounded=0;orthogonalLoop=1;jettySize=auto;html=1;exitX=0.25;exitY=0;exitDx=0;exitDy=0;entryX=0.25;entryY=1;entryDx=0;entryDy=0;" parent="1" source="4zyIvn0-0Vn7ysodNtMI-71" target="4zyIvn0-0Vn7ysodNtMI-74" edge="1">
          <mxGeometry relative="1" as="geometry" />
        </mxCell>
        <mxCell id="4zyIvn0-0Vn7ysodNtMI-78" style="rounded=0;orthogonalLoop=1;jettySize=auto;html=1;exitX=0.75;exitY=0;exitDx=0;exitDy=0;entryX=0.25;entryY=1;entryDx=0;entryDy=0;" parent="1" source="4zyIvn0-0Vn7ysodNtMI-71" target="4zyIvn0-0Vn7ysodNtMI-75" edge="1">
          <mxGeometry relative="1" as="geometry">
            <Array as="points">
              <mxPoint x="240" y="1984" />
              <mxPoint x="304" y="2080" />
            </Array>
          </mxGeometry>
        </mxCell>
        <mxCell id="4zyIvn0-0Vn7ysodNtMI-71" value="DEMUX" style="shape=trapezoid;perimeter=trapezoidPerimeter;whiteSpace=wrap;html=1;fixedSize=1;rotation=90;horizontal=1;flipV=1;" parent="1" vertex="1">
          <mxGeometry x="128" y="1936" width="128" height="32" as="geometry" />
        </mxCell>
        <mxCell id="4zyIvn0-0Vn7ysodNtMI-72" style="edgeStyle=orthogonalEdgeStyle;rounded=0;orthogonalLoop=1;jettySize=auto;html=1;exitX=0.5;exitY=0;exitDx=0;exitDy=0;strokeWidth=1;entryX=0.5;entryY=1;entryDx=0;entryDy=0;" parent="1" target="4zyIvn0-0Vn7ysodNtMI-73" edge="1">
          <mxGeometry relative="1" as="geometry">
            <mxPoint x="160" y="2144" as="targetPoint" />
            <mxPoint x="112" y="2112" as="sourcePoint" />
          </mxGeometry>
        </mxCell>
        <mxCell id="4zyIvn0-0Vn7ysodNtMI-77" style="rounded=0;orthogonalLoop=1;jettySize=auto;html=1;exitX=0.25;exitY=0;exitDx=0;exitDy=0;entryX=0.75;entryY=1;entryDx=0;entryDy=0;" parent="1" source="4zyIvn0-0Vn7ysodNtMI-73" target="4zyIvn0-0Vn7ysodNtMI-74" edge="1">
          <mxGeometry relative="1" as="geometry">
            <Array as="points">
              <mxPoint x="240" y="2080" />
              <mxPoint x="304" y="1984" />
            </Array>
          </mxGeometry>
        </mxCell>
        <mxCell id="4zyIvn0-0Vn7ysodNtMI-79" style="edgeStyle=orthogonalEdgeStyle;rounded=0;orthogonalLoop=1;jettySize=auto;html=1;exitX=0.75;exitY=0;exitDx=0;exitDy=0;entryX=0.75;entryY=1;entryDx=0;entryDy=0;" parent="1" source="4zyIvn0-0Vn7ysodNtMI-73" target="4zyIvn0-0Vn7ysodNtMI-75" edge="1">
          <mxGeometry relative="1" as="geometry" />
        </mxCell>
        <mxCell id="4zyIvn0-0Vn7ysodNtMI-73" value="DEMUX" style="shape=trapezoid;perimeter=trapezoidPerimeter;whiteSpace=wrap;html=1;fixedSize=1;rotation=90;horizontal=1;flipV=1;" parent="1" vertex="1">
          <mxGeometry x="128" y="2096" width="128" height="32" as="geometry" />
        </mxCell>
        <mxCell id="4zyIvn0-0Vn7ysodNtMI-80" style="edgeStyle=orthogonalEdgeStyle;rounded=0;orthogonalLoop=1;jettySize=auto;html=1;exitX=0.5;exitY=0;exitDx=0;exitDy=0;" parent="1" source="4zyIvn0-0Vn7ysodNtMI-74" edge="1">
          <mxGeometry relative="1" as="geometry">
            <mxPoint x="432" y="1952.2857142857142" as="targetPoint" />
          </mxGeometry>
        </mxCell>
        <mxCell id="4zyIvn0-0Vn7ysodNtMI-74" value="MUX" style="shape=trapezoid;perimeter=trapezoidPerimeter;whiteSpace=wrap;html=1;fixedSize=1;rotation=90;" parent="1" vertex="1">
          <mxGeometry x="288" y="1936" width="128" height="32" as="geometry" />
        </mxCell>
        <mxCell id="4zyIvn0-0Vn7ysodNtMI-81" style="edgeStyle=orthogonalEdgeStyle;rounded=0;orthogonalLoop=1;jettySize=auto;html=1;exitX=0.5;exitY=0;exitDx=0;exitDy=0;" parent="1" source="4zyIvn0-0Vn7ysodNtMI-75" edge="1">
          <mxGeometry relative="1" as="geometry">
            <mxPoint x="432" y="2112.285714285714" as="targetPoint" />
          </mxGeometry>
        </mxCell>
        <mxCell id="4zyIvn0-0Vn7ysodNtMI-75" value="MUX" style="shape=trapezoid;perimeter=trapezoidPerimeter;whiteSpace=wrap;html=1;fixedSize=1;rotation=90;" parent="1" vertex="1">
          <mxGeometry x="288" y="2096" width="128" height="32" as="geometry" />
        </mxCell>
        <mxCell id="iYGyc5kOzqzwwhRVOcrO-49" value="arb" style="text;html=1;strokeColor=none;fillColor=none;align=center;verticalAlign=middle;whiteSpace=wrap;rounded=0;" parent="1" vertex="1">
          <mxGeometry x="352" y="176" width="48" height="16" as="geometry" />
        </mxCell>
        <mxCell id="dm_DR9h1OE6j43ScIx_w-169" style="edgeStyle=orthogonalEdgeStyle;rounded=0;orthogonalLoop=1;jettySize=auto;html=1;entryX=0;entryY=0.25;entryDx=0;entryDy=0;startArrow=diamondThin;startFill=0;endSize=3;startSize=3;" parent="1" target="dm_DR9h1OE6j43ScIx_w-3" edge="1">
          <mxGeometry relative="1" as="geometry">
            <mxPoint x="416" y="976" as="sourcePoint" />
            <Array as="points">
              <mxPoint x="416" y="880" />
            </Array>
          </mxGeometry>
        </mxCell>
        <mxCell id="dm_DR9h1OE6j43ScIx_w-170" style="edgeStyle=orthogonalEdgeStyle;rounded=0;orthogonalLoop=1;jettySize=auto;html=1;entryX=0;entryY=0.75;entryDx=0;entryDy=0;startArrow=diamondThin;startFill=0;endSize=3;startSize=3;" parent="1" target="dm_DR9h1OE6j43ScIx_w-3" edge="1">
          <mxGeometry relative="1" as="geometry">
            <mxPoint x="424" y="1040" as="sourcePoint" />
            <Array as="points">
              <mxPoint x="424" y="912" />
            </Array>
          </mxGeometry>
        </mxCell>
        <mxCell id="dm_DR9h1OE6j43ScIx_w-173" style="edgeStyle=orthogonalEdgeStyle;rounded=0;orthogonalLoop=1;jettySize=auto;html=1;exitX=0.5;exitY=1;exitDx=0;exitDy=0;entryX=0;entryY=0.5;entryDx=0;entryDy=0;" parent="1" source="dm_DR9h1OE6j43ScIx_w-3" target="dm_DR9h1OE6j43ScIx_w-5" edge="1">
          <mxGeometry relative="1" as="geometry" />
        </mxCell>
        <mxCell id="dm_DR9h1OE6j43ScIx_w-3" value="Arbiter" style="rounded=0;whiteSpace=wrap;html=1;strokeWidth=2;" parent="1" vertex="1">
          <mxGeometry x="464" y="864" width="64" height="64" as="geometry" />
        </mxCell>
        <mxCell id="dm_DR9h1OE6j43ScIx_w-137" style="edgeStyle=orthogonalEdgeStyle;rounded=0;orthogonalLoop=1;jettySize=auto;html=1;exitX=0.5;exitY=0;exitDx=0;exitDy=0;entryX=0;entryY=0.5;entryDx=0;entryDy=0;endSize=3;startSize=3;strokeWidth=2;" parent="1" source="dm_DR9h1OE6j43ScIx_w-5" target="dm_DR9h1OE6j43ScIx_w-130" edge="1">
          <mxGeometry relative="1" as="geometry" />
        </mxCell>
        <mxCell id="dm_DR9h1OE6j43ScIx_w-5" value="MUX" style="shape=trapezoid;perimeter=trapezoidPerimeter;whiteSpace=wrap;html=1;fixedSize=1;rotation=90;" parent="1" vertex="1">
          <mxGeometry x="432" y="992" width="128" height="32" as="geometry" />
        </mxCell>
        <mxCell id="dm_DR9h1OE6j43ScIx_w-7" value="&lt;u&gt;slave[0]&lt;/u&gt;" style="rounded=1;whiteSpace=wrap;html=1;fillColor=#E6E6E6;verticalAlign=top;" parent="1" vertex="1">
          <mxGeometry x="96" y="832" width="64" height="160" as="geometry" />
        </mxCell>
        <mxCell id="dm_DR9h1OE6j43ScIx_w-183" style="edgeStyle=orthogonalEdgeStyle;rounded=0;orthogonalLoop=1;jettySize=auto;html=1;exitX=0;exitY=0.5;exitDx=0;exitDy=0;entryX=0;entryY=0.5;entryDx=0;entryDy=0;startArrow=diamondThin;startFill=0;endSize=3;startSize=3;" parent="1" target="dm_DR9h1OE6j43ScIx_w-31" edge="1">
          <mxGeometry relative="1" as="geometry">
            <mxPoint x="688" y="1008" as="sourcePoint" />
            <Array as="points">
              <mxPoint x="688" y="936" />
              <mxPoint x="720" y="936" />
            </Array>
          </mxGeometry>
        </mxCell>
        <mxCell id="dm_DR9h1OE6j43ScIx_w-185" style="edgeStyle=orthogonalEdgeStyle;rounded=0;orthogonalLoop=1;jettySize=auto;html=1;exitX=0.25;exitY=0;exitDx=0;exitDy=0;entryX=0;entryY=0.5;entryDx=0;entryDy=0;strokeWidth=2;" parent="1" source="dm_DR9h1OE6j43ScIx_w-31" target="dm_DR9h1OE6j43ScIx_w-176" edge="1">
          <mxGeometry relative="1" as="geometry" />
        </mxCell>
        <mxCell id="dm_DR9h1OE6j43ScIx_w-194" style="edgeStyle=orthogonalEdgeStyle;rounded=0;orthogonalLoop=1;jettySize=auto;html=1;exitX=0.75;exitY=0;exitDx=0;exitDy=0;entryX=0;entryY=0.5;entryDx=0;entryDy=0;strokeWidth=2;" parent="1" source="dm_DR9h1OE6j43ScIx_w-31" target="dm_DR9h1OE6j43ScIx_w-187" edge="1">
          <mxGeometry relative="1" as="geometry">
            <mxPoint x="800" y="1096" as="targetPoint" />
            <Array as="points">
              <mxPoint x="768" y="1040" />
              <mxPoint x="768" y="1096" />
            </Array>
          </mxGeometry>
        </mxCell>
        <mxCell id="dm_DR9h1OE6j43ScIx_w-31" value="DEMUX" style="shape=trapezoid;perimeter=trapezoidPerimeter;whiteSpace=wrap;html=1;fixedSize=1;rotation=90;horizontal=1;flipV=1;" parent="1" vertex="1">
          <mxGeometry x="656" y="992" width="128" height="32" as="geometry" />
        </mxCell>
        <mxCell id="dm_DR9h1OE6j43ScIx_w-74" value="" style="rounded=1;whiteSpace=wrap;html=1;fillColor=#FFFFFF;" parent="1" vertex="1">
          <mxGeometry x="96" y="864" width="16" height="16" as="geometry" />
        </mxCell>
        <mxCell id="dm_DR9h1OE6j43ScIx_w-75" style="edgeStyle=orthogonalEdgeStyle;rounded=0;orthogonalLoop=1;jettySize=auto;html=1;exitX=0;exitY=0.5;exitDx=0;exitDy=0;entryX=1;entryY=0.5;entryDx=0;entryDy=0;startArrow=none;startFill=0;startSize=3;endSize=3;" parent="1" source="dm_DR9h1OE6j43ScIx_w-74" target="dm_DR9h1OE6j43ScIx_w-74" edge="1">
          <mxGeometry relative="1" as="geometry" />
        </mxCell>
        <mxCell id="dm_DR9h1OE6j43ScIx_w-76" value="" style="rounded=1;whiteSpace=wrap;html=1;fillColor=#FFFFFF;" parent="1" vertex="1">
          <mxGeometry x="96" y="896" width="16" height="16" as="geometry" />
        </mxCell>
        <mxCell id="dm_DR9h1OE6j43ScIx_w-77" style="edgeStyle=orthogonalEdgeStyle;rounded=0;orthogonalLoop=1;jettySize=auto;html=1;exitX=1;exitY=0.5;exitDx=0;exitDy=0;entryX=0;entryY=0.5;entryDx=0;entryDy=0;startArrow=none;startFill=0;startSize=3;endSize=3;" parent="1" source="dm_DR9h1OE6j43ScIx_w-76" target="dm_DR9h1OE6j43ScIx_w-76" edge="1">
          <mxGeometry relative="1" as="geometry" />
        </mxCell>
        <mxCell id="dm_DR9h1OE6j43ScIx_w-78" value="" style="rounded=1;whiteSpace=wrap;html=1;fillColor=#FFFFFF;" parent="1" vertex="1">
          <mxGeometry x="96" y="960" width="16" height="16" as="geometry" />
        </mxCell>
        <mxCell id="dm_DR9h1OE6j43ScIx_w-79" style="edgeStyle=orthogonalEdgeStyle;rounded=0;orthogonalLoop=1;jettySize=auto;html=1;exitX=0;exitY=0.5;exitDx=0;exitDy=0;entryX=1;entryY=0.5;entryDx=0;entryDy=0;startArrow=none;startFill=0;startSize=3;endSize=3;" parent="1" source="dm_DR9h1OE6j43ScIx_w-78" target="dm_DR9h1OE6j43ScIx_w-78" edge="1">
          <mxGeometry relative="1" as="geometry" />
        </mxCell>
        <mxCell id="dm_DR9h1OE6j43ScIx_w-108" style="edgeStyle=orthogonalEdgeStyle;rounded=0;orthogonalLoop=1;jettySize=auto;html=1;exitX=1;exitY=0.5;exitDx=0;exitDy=0;endSize=3;startSize=3;endArrow=diamondThin;endFill=0;" parent="1" source="dm_DR9h1OE6j43ScIx_w-80" edge="1">
          <mxGeometry relative="1" as="geometry">
            <mxPoint x="208" y="904" as="targetPoint" />
          </mxGeometry>
        </mxCell>
        <mxCell id="dm_DR9h1OE6j43ScIx_w-80" value="vld" style="text;html=1;strokeColor=none;fillColor=none;align=left;verticalAlign=middle;whiteSpace=wrap;rounded=0;fontSize=8;" parent="1" vertex="1">
          <mxGeometry x="112" y="864" width="48" height="16" as="geometry" />
        </mxCell>
        <mxCell id="dm_DR9h1OE6j43ScIx_w-229" style="edgeStyle=orthogonalEdgeStyle;rounded=0;orthogonalLoop=1;jettySize=auto;html=1;exitX=1;exitY=0.5;exitDx=0;exitDy=0;endSize=3;startSize=3;endArrow=diamondThin;endFill=0;" parent="1" source="dm_DR9h1OE6j43ScIx_w-81" edge="1">
          <mxGeometry relative="1" as="geometry">
            <mxPoint x="208" y="904.003717472119" as="targetPoint" />
          </mxGeometry>
        </mxCell>
        <mxCell id="dm_DR9h1OE6j43ScIx_w-81" value="rdy" style="text;html=1;strokeColor=none;fillColor=none;align=left;verticalAlign=middle;whiteSpace=wrap;rounded=0;fontSize=8;" parent="1" vertex="1">
          <mxGeometry x="112" y="896" width="48" height="16" as="geometry" />
        </mxCell>
        <mxCell id="dm_DR9h1OE6j43ScIx_w-103" style="edgeStyle=orthogonalEdgeStyle;rounded=0;orthogonalLoop=1;jettySize=auto;html=1;exitX=1;exitY=0.5;exitDx=0;exitDy=0;endSize=3;startSize=3;endArrow=classic;endFill=1;entryX=0;entryY=0.5;entryDx=0;entryDy=0;strokeWidth=2;" parent="1" source="dm_DR9h1OE6j43ScIx_w-82" target="dm_DR9h1OE6j43ScIx_w-110" edge="1">
          <mxGeometry relative="1" as="geometry">
            <mxPoint x="208" y="904" as="targetPoint" />
            <Array as="points">
              <mxPoint x="208" y="968" />
              <mxPoint x="208" y="904" />
            </Array>
          </mxGeometry>
        </mxCell>
        <mxCell id="dm_DR9h1OE6j43ScIx_w-82" value="data" style="text;html=1;strokeColor=none;fillColor=none;align=left;verticalAlign=middle;whiteSpace=wrap;rounded=0;fontSize=8;" parent="1" vertex="1">
          <mxGeometry x="112" y="960" width="48" height="16" as="geometry" />
        </mxCell>
        <mxCell id="dm_DR9h1OE6j43ScIx_w-83" value="" style="rounded=1;whiteSpace=wrap;html=1;fillColor=#FFFFFF;" parent="1" vertex="1">
          <mxGeometry x="96" y="928" width="16" height="16" as="geometry" />
        </mxCell>
        <mxCell id="dm_DR9h1OE6j43ScIx_w-84" style="edgeStyle=orthogonalEdgeStyle;rounded=0;orthogonalLoop=1;jettySize=auto;html=1;exitX=0;exitY=0.5;exitDx=0;exitDy=0;entryX=1;entryY=0.5;entryDx=0;entryDy=0;startArrow=none;startFill=0;startSize=3;endSize=3;" parent="1" source="dm_DR9h1OE6j43ScIx_w-83" target="dm_DR9h1OE6j43ScIx_w-83" edge="1">
          <mxGeometry relative="1" as="geometry" />
        </mxCell>
        <mxCell id="dm_DR9h1OE6j43ScIx_w-104" style="edgeStyle=orthogonalEdgeStyle;rounded=0;orthogonalLoop=1;jettySize=auto;html=1;exitX=1;exitY=0.5;exitDx=0;exitDy=0;endArrow=diamondThin;endFill=0;endSize=3;startSize=3;" parent="1" source="dm_DR9h1OE6j43ScIx_w-85" edge="1">
          <mxGeometry relative="1" as="geometry">
            <mxPoint x="208" y="952" as="targetPoint" />
            <Array as="points">
              <mxPoint x="168" y="936" />
              <mxPoint x="168" y="952" />
            </Array>
          </mxGeometry>
        </mxCell>
        <mxCell id="dm_DR9h1OE6j43ScIx_w-85" value="dst" style="text;html=1;strokeColor=none;fillColor=none;align=left;verticalAlign=middle;whiteSpace=wrap;rounded=0;fontSize=8;" parent="1" vertex="1">
          <mxGeometry x="112" y="928" width="48" height="16" as="geometry" />
        </mxCell>
        <mxCell id="dm_DR9h1OE6j43ScIx_w-106" style="edgeStyle=orthogonalEdgeStyle;rounded=0;orthogonalLoop=1;jettySize=auto;html=1;exitX=1;exitY=0.5;exitDx=0;exitDy=0;endArrow=diamondThin;endFill=0;endSize=3;startSize=3;" parent="1" source="dm_DR9h1OE6j43ScIx_w-105" edge="1">
          <mxGeometry relative="1" as="geometry">
            <mxPoint x="208" y="936" as="targetPoint" />
          </mxGeometry>
        </mxCell>
        <mxCell id="dm_DR9h1OE6j43ScIx_w-105" value="src" style="text;html=1;strokeColor=none;fillColor=none;align=center;verticalAlign=middle;whiteSpace=wrap;rounded=0;fontSize=8;" parent="1" vertex="1">
          <mxGeometry x="176" y="928" width="16" height="16" as="geometry" />
        </mxCell>
        <mxCell id="dm_DR9h1OE6j43ScIx_w-109" value="&lt;u&gt;ds_fifo&lt;/u&gt;" style="rounded=0;whiteSpace=wrap;html=1;verticalAlign=top;strokeWidth=2;" parent="1" vertex="1">
          <mxGeometry x="224" y="864" width="128" height="96" as="geometry" />
        </mxCell>
        <mxCell id="dm_DR9h1OE6j43ScIx_w-110" value="" style="rounded=1;whiteSpace=wrap;html=1;fillColor=#FFFFFF;" parent="1" vertex="1">
          <mxGeometry x="224" y="896" width="16" height="16" as="geometry" />
        </mxCell>
        <mxCell id="dm_DR9h1OE6j43ScIx_w-111" style="edgeStyle=orthogonalEdgeStyle;rounded=0;orthogonalLoop=1;jettySize=auto;html=1;exitX=0;exitY=0.5;exitDx=0;exitDy=0;entryX=1;entryY=0.5;entryDx=0;entryDy=0;startArrow=none;startFill=0;startSize=3;endSize=3;" parent="1" source="dm_DR9h1OE6j43ScIx_w-110" target="dm_DR9h1OE6j43ScIx_w-110" edge="1">
          <mxGeometry relative="1" as="geometry" />
        </mxCell>
        <mxCell id="dm_DR9h1OE6j43ScIx_w-112" value="Slave&lt;br&gt;FIFO" style="text;html=1;strokeColor=none;fillColor=none;align=center;verticalAlign=middle;whiteSpace=wrap;rounded=0;" parent="1" vertex="1">
          <mxGeometry x="256" y="896" width="64" height="64" as="geometry" />
        </mxCell>
        <mxCell id="dm_DR9h1OE6j43ScIx_w-117" value="if_ds" style="text;html=1;strokeColor=none;fillColor=none;align=left;verticalAlign=middle;whiteSpace=wrap;rounded=0;fontSize=8;" parent="1" vertex="1">
          <mxGeometry x="240" y="896" width="48" height="16" as="geometry" />
        </mxCell>
        <mxCell id="dm_DR9h1OE6j43ScIx_w-168" style="edgeStyle=orthogonalEdgeStyle;rounded=0;orthogonalLoop=1;jettySize=auto;html=1;exitX=1;exitY=0.5;exitDx=0;exitDy=0;entryX=0.25;entryY=1;entryDx=0;entryDy=0;endSize=3;startSize=3;strokeWidth=2;" parent="1" source="dm_DR9h1OE6j43ScIx_w-120" target="dm_DR9h1OE6j43ScIx_w-5" edge="1">
          <mxGeometry relative="1" as="geometry">
            <Array as="points">
              <mxPoint x="368" y="904" />
              <mxPoint x="368" y="976" />
            </Array>
          </mxGeometry>
        </mxCell>
        <mxCell id="dm_DR9h1OE6j43ScIx_w-120" value="" style="rounded=1;whiteSpace=wrap;html=1;fillColor=#FFFFFF;" parent="1" vertex="1">
          <mxGeometry x="336" y="896" width="16" height="16" as="geometry" />
        </mxCell>
        <mxCell id="dm_DR9h1OE6j43ScIx_w-121" style="edgeStyle=orthogonalEdgeStyle;rounded=0;orthogonalLoop=1;jettySize=auto;html=1;exitX=0;exitY=0.5;exitDx=0;exitDy=0;entryX=1;entryY=0.5;entryDx=0;entryDy=0;startArrow=none;startFill=0;startSize=3;endSize=3;" parent="1" source="dm_DR9h1OE6j43ScIx_w-120" target="dm_DR9h1OE6j43ScIx_w-120" edge="1">
          <mxGeometry relative="1" as="geometry" />
        </mxCell>
        <mxCell id="dm_DR9h1OE6j43ScIx_w-126" value="if_ds" style="text;html=1;strokeColor=none;fillColor=none;align=right;verticalAlign=middle;whiteSpace=wrap;rounded=0;fontSize=8;" parent="1" vertex="1">
          <mxGeometry x="288" y="896" width="48" height="16" as="geometry" />
        </mxCell>
        <mxCell id="dm_DR9h1OE6j43ScIx_w-129" value="&lt;u&gt;ds_fifo&lt;/u&gt;" style="rounded=0;whiteSpace=wrap;html=1;verticalAlign=top;strokeWidth=2;" parent="1" vertex="1">
          <mxGeometry x="544" y="960" width="128" height="96" as="geometry" />
        </mxCell>
        <mxCell id="dm_DR9h1OE6j43ScIx_w-130" value="" style="rounded=1;whiteSpace=wrap;html=1;fillColor=#FFFFFF;" parent="1" vertex="1">
          <mxGeometry x="544" y="1000" width="16" height="16" as="geometry" />
        </mxCell>
        <mxCell id="dm_DR9h1OE6j43ScIx_w-131" style="edgeStyle=orthogonalEdgeStyle;rounded=0;orthogonalLoop=1;jettySize=auto;html=1;exitX=0;exitY=0.5;exitDx=0;exitDy=0;entryX=1;entryY=0.5;entryDx=0;entryDy=0;startArrow=none;startFill=0;startSize=3;endSize=3;" parent="1" source="dm_DR9h1OE6j43ScIx_w-130" target="dm_DR9h1OE6j43ScIx_w-130" edge="1">
          <mxGeometry relative="1" as="geometry" />
        </mxCell>
        <mxCell id="dm_DR9h1OE6j43ScIx_w-133" value="if_ds" style="text;html=1;strokeColor=none;fillColor=none;align=left;verticalAlign=middle;whiteSpace=wrap;rounded=0;fontSize=8;" parent="1" vertex="1">
          <mxGeometry x="560" y="1000" width="48" height="16" as="geometry" />
        </mxCell>
        <mxCell id="dm_DR9h1OE6j43ScIx_w-138" style="edgeStyle=orthogonalEdgeStyle;rounded=0;orthogonalLoop=1;jettySize=auto;html=1;exitX=1;exitY=0.5;exitDx=0;exitDy=0;entryX=0.5;entryY=1;entryDx=0;entryDy=0;endSize=3;startSize=3;strokeWidth=2;" parent="1" source="dm_DR9h1OE6j43ScIx_w-134" target="dm_DR9h1OE6j43ScIx_w-31" edge="1">
          <mxGeometry relative="1" as="geometry" />
        </mxCell>
        <mxCell id="dm_DR9h1OE6j43ScIx_w-134" value="" style="rounded=1;whiteSpace=wrap;html=1;fillColor=#FFFFFF;" parent="1" vertex="1">
          <mxGeometry x="656" y="1000" width="16" height="16" as="geometry" />
        </mxCell>
        <mxCell id="dm_DR9h1OE6j43ScIx_w-135" style="edgeStyle=orthogonalEdgeStyle;rounded=0;orthogonalLoop=1;jettySize=auto;html=1;exitX=0;exitY=0.5;exitDx=0;exitDy=0;entryX=1;entryY=0.5;entryDx=0;entryDy=0;startArrow=none;startFill=0;startSize=3;endSize=3;" parent="1" source="dm_DR9h1OE6j43ScIx_w-134" target="dm_DR9h1OE6j43ScIx_w-134" edge="1">
          <mxGeometry relative="1" as="geometry" />
        </mxCell>
        <mxCell id="dm_DR9h1OE6j43ScIx_w-136" value="if_ds" style="text;html=1;strokeColor=none;fillColor=none;align=right;verticalAlign=middle;whiteSpace=wrap;rounded=0;fontSize=8;" parent="1" vertex="1">
          <mxGeometry x="608" y="1000" width="48" height="16" as="geometry" />
        </mxCell>
        <mxCell id="dm_DR9h1OE6j43ScIx_w-139" value="Mid&lt;br&gt;FIFO" style="text;html=1;strokeColor=none;fillColor=none;align=center;verticalAlign=middle;whiteSpace=wrap;rounded=0;" parent="1" vertex="1">
          <mxGeometry x="576" y="992" width="64" height="64" as="geometry" />
        </mxCell>
        <mxCell id="dm_DR9h1OE6j43ScIx_w-167" style="edgeStyle=orthogonalEdgeStyle;rounded=0;orthogonalLoop=1;jettySize=auto;html=1;entryX=0.75;entryY=1;entryDx=0;entryDy=0;endSize=3;startSize=3;exitX=1;exitY=0.5;exitDx=0;exitDy=0;strokeWidth=2;" parent="1" source="dm_DR9h1OE6j43ScIx_w-254" target="dm_DR9h1OE6j43ScIx_w-5" edge="1">
          <mxGeometry relative="1" as="geometry">
            <mxPoint x="384" y="1104" as="sourcePoint" />
            <Array as="points">
              <mxPoint x="368" y="1096" />
              <mxPoint x="368" y="1040" />
            </Array>
          </mxGeometry>
        </mxCell>
        <mxCell id="dm_DR9h1OE6j43ScIx_w-171" value="routing" style="text;html=1;strokeColor=none;fillColor=none;align=left;verticalAlign=middle;whiteSpace=wrap;rounded=0;fontSize=8;" parent="1" vertex="1">
          <mxGeometry x="424" y="864" width="40" height="16" as="geometry" />
        </mxCell>
        <mxCell id="dm_DR9h1OE6j43ScIx_w-172" value="routing" style="text;html=1;strokeColor=none;fillColor=none;align=left;verticalAlign=middle;whiteSpace=wrap;rounded=0;fontSize=8;" parent="1" vertex="1">
          <mxGeometry x="424" y="896" width="40" height="16" as="geometry" />
        </mxCell>
        <mxCell id="dm_DR9h1OE6j43ScIx_w-174" value="grant" style="text;html=1;strokeColor=none;fillColor=none;align=left;verticalAlign=middle;whiteSpace=wrap;rounded=0;fontSize=8;" parent="1" vertex="1">
          <mxGeometry x="496" y="928" width="40" height="16" as="geometry" />
        </mxCell>
        <mxCell id="dm_DR9h1OE6j43ScIx_w-175" value="&lt;u&gt;ds_fifo&lt;/u&gt;" style="rounded=0;whiteSpace=wrap;html=1;verticalAlign=top;strokeWidth=2;" parent="1" vertex="1">
          <mxGeometry x="800" y="864" width="128" height="96" as="geometry" />
        </mxCell>
        <mxCell id="dm_DR9h1OE6j43ScIx_w-176" value="" style="rounded=1;whiteSpace=wrap;html=1;fillColor=#FFFFFF;" parent="1" vertex="1">
          <mxGeometry x="800" y="896" width="16" height="16" as="geometry" />
        </mxCell>
        <mxCell id="dm_DR9h1OE6j43ScIx_w-177" style="edgeStyle=orthogonalEdgeStyle;rounded=0;orthogonalLoop=1;jettySize=auto;html=1;exitX=0;exitY=0.5;exitDx=0;exitDy=0;entryX=1;entryY=0.5;entryDx=0;entryDy=0;startArrow=none;startFill=0;startSize=3;endSize=3;" parent="1" source="dm_DR9h1OE6j43ScIx_w-176" target="dm_DR9h1OE6j43ScIx_w-176" edge="1">
          <mxGeometry relative="1" as="geometry" />
        </mxCell>
        <mxCell id="dm_DR9h1OE6j43ScIx_w-178" value="Master&lt;br&gt;FIFO" style="text;html=1;strokeColor=none;fillColor=none;align=center;verticalAlign=middle;whiteSpace=wrap;rounded=0;" parent="1" vertex="1">
          <mxGeometry x="832" y="896" width="64" height="64" as="geometry" />
        </mxCell>
        <mxCell id="dm_DR9h1OE6j43ScIx_w-179" value="if_ds" style="text;html=1;strokeColor=none;fillColor=none;align=left;verticalAlign=middle;whiteSpace=wrap;rounded=0;fontSize=8;" parent="1" vertex="1">
          <mxGeometry x="816" y="896" width="48" height="16" as="geometry" />
        </mxCell>
        <mxCell id="dm_DR9h1OE6j43ScIx_w-180" value="" style="rounded=1;whiteSpace=wrap;html=1;fillColor=#FFFFFF;" parent="1" vertex="1">
          <mxGeometry x="912" y="896" width="16" height="16" as="geometry" />
        </mxCell>
        <mxCell id="dm_DR9h1OE6j43ScIx_w-181" style="edgeStyle=orthogonalEdgeStyle;rounded=0;orthogonalLoop=1;jettySize=auto;html=1;exitX=0;exitY=0.5;exitDx=0;exitDy=0;entryX=1;entryY=0.5;entryDx=0;entryDy=0;startArrow=none;startFill=0;startSize=3;endSize=3;" parent="1" source="dm_DR9h1OE6j43ScIx_w-180" target="dm_DR9h1OE6j43ScIx_w-180" edge="1">
          <mxGeometry relative="1" as="geometry" />
        </mxCell>
        <mxCell id="dm_DR9h1OE6j43ScIx_w-182" value="if_ds" style="text;html=1;strokeColor=none;fillColor=none;align=right;verticalAlign=middle;whiteSpace=wrap;rounded=0;fontSize=8;" parent="1" vertex="1">
          <mxGeometry x="864" y="896" width="48" height="16" as="geometry" />
        </mxCell>
        <mxCell id="dm_DR9h1OE6j43ScIx_w-184" value="routing" style="text;html=1;strokeColor=none;fillColor=none;align=left;verticalAlign=middle;whiteSpace=wrap;rounded=0;fontSize=8;" parent="1" vertex="1">
          <mxGeometry x="688" y="920" width="40" height="16" as="geometry" />
        </mxCell>
        <mxCell id="dm_DR9h1OE6j43ScIx_w-186" value="&lt;u&gt;ds_fifo&lt;/u&gt;" style="rounded=0;whiteSpace=wrap;html=1;verticalAlign=top;strokeWidth=2;" parent="1" vertex="1">
          <mxGeometry x="800" y="1056" width="128" height="96" as="geometry" />
        </mxCell>
        <mxCell id="dm_DR9h1OE6j43ScIx_w-187" value="" style="rounded=1;whiteSpace=wrap;html=1;fillColor=#FFFFFF;" parent="1" vertex="1">
          <mxGeometry x="800" y="1088" width="16" height="16" as="geometry" />
        </mxCell>
        <mxCell id="dm_DR9h1OE6j43ScIx_w-188" style="edgeStyle=orthogonalEdgeStyle;rounded=0;orthogonalLoop=1;jettySize=auto;html=1;exitX=0;exitY=0.5;exitDx=0;exitDy=0;entryX=1;entryY=0.5;entryDx=0;entryDy=0;startArrow=none;startFill=0;startSize=3;endSize=3;" parent="1" source="dm_DR9h1OE6j43ScIx_w-187" target="dm_DR9h1OE6j43ScIx_w-187" edge="1">
          <mxGeometry relative="1" as="geometry" />
        </mxCell>
        <mxCell id="dm_DR9h1OE6j43ScIx_w-189" value="Master&lt;br&gt;FIFO" style="text;html=1;strokeColor=none;fillColor=none;align=center;verticalAlign=middle;whiteSpace=wrap;rounded=0;" parent="1" vertex="1">
          <mxGeometry x="832" y="1088" width="64" height="64" as="geometry" />
        </mxCell>
        <mxCell id="dm_DR9h1OE6j43ScIx_w-190" value="if_ds" style="text;html=1;strokeColor=none;fillColor=none;align=left;verticalAlign=middle;whiteSpace=wrap;rounded=0;fontSize=8;" parent="1" vertex="1">
          <mxGeometry x="816" y="1088" width="48" height="16" as="geometry" />
        </mxCell>
        <mxCell id="dm_DR9h1OE6j43ScIx_w-191" value="" style="rounded=1;whiteSpace=wrap;html=1;fillColor=#FFFFFF;" parent="1" vertex="1">
          <mxGeometry x="912" y="1088" width="16" height="16" as="geometry" />
        </mxCell>
        <mxCell id="dm_DR9h1OE6j43ScIx_w-192" style="edgeStyle=orthogonalEdgeStyle;rounded=0;orthogonalLoop=1;jettySize=auto;html=1;exitX=0;exitY=0.5;exitDx=0;exitDy=0;entryX=1;entryY=0.5;entryDx=0;entryDy=0;startArrow=none;startFill=0;startSize=3;endSize=3;" parent="1" source="dm_DR9h1OE6j43ScIx_w-191" target="dm_DR9h1OE6j43ScIx_w-191" edge="1">
          <mxGeometry relative="1" as="geometry" />
        </mxCell>
        <mxCell id="dm_DR9h1OE6j43ScIx_w-193" value="if_ds" style="text;html=1;strokeColor=none;fillColor=none;align=right;verticalAlign=middle;whiteSpace=wrap;rounded=0;fontSize=8;" parent="1" vertex="1">
          <mxGeometry x="864" y="1088" width="48" height="16" as="geometry" />
        </mxCell>
        <mxCell id="dm_DR9h1OE6j43ScIx_w-212" style="edgeStyle=orthogonalEdgeStyle;rounded=0;orthogonalLoop=1;jettySize=auto;html=1;exitX=0;exitY=0.5;exitDx=0;exitDy=0;endSize=3;startSize=3;endArrow=diamondThin;endFill=0;" parent="1" source="dm_DR9h1OE6j43ScIx_w-217" edge="1">
          <mxGeometry relative="1" as="geometry">
            <mxPoint x="944" y="1096" as="targetPoint" />
          </mxGeometry>
        </mxCell>
        <mxCell id="dm_DR9h1OE6j43ScIx_w-213" value="&lt;u&gt;master[1]&lt;/u&gt;" style="rounded=1;whiteSpace=wrap;html=1;fillColor=#E6E6E6;verticalAlign=top;" parent="1" vertex="1">
          <mxGeometry x="992" y="1024" width="64" height="160" as="geometry" />
        </mxCell>
        <mxCell id="dm_DR9h1OE6j43ScIx_w-214" style="edgeStyle=orthogonalEdgeStyle;rounded=0;orthogonalLoop=1;jettySize=auto;html=1;exitX=0;exitY=0.5;exitDx=0;exitDy=0;entryX=0;entryY=0.5;entryDx=0;entryDy=0;startArrow=diamondThin;startFill=0;endSize=3;startSize=3;" parent="1" target="dm_DR9h1OE6j43ScIx_w-215" edge="1">
          <mxGeometry relative="1" as="geometry">
            <mxPoint x="976" y="1096" as="sourcePoint" />
            <Array as="points">
              <mxPoint x="976" y="1064" />
            </Array>
          </mxGeometry>
        </mxCell>
        <mxCell id="dm_DR9h1OE6j43ScIx_w-215" value="" style="rounded=1;whiteSpace=wrap;html=1;fillColor=#FFFFFF;" parent="1" vertex="1">
          <mxGeometry x="992" y="1056" width="16" height="16" as="geometry" />
        </mxCell>
        <mxCell id="dm_DR9h1OE6j43ScIx_w-216" style="edgeStyle=orthogonalEdgeStyle;rounded=0;orthogonalLoop=1;jettySize=auto;html=1;exitX=0;exitY=0.5;exitDx=0;exitDy=0;entryX=1;entryY=0.5;entryDx=0;entryDy=0;startArrow=none;startFill=0;startSize=3;endSize=3;" parent="1" source="dm_DR9h1OE6j43ScIx_w-215" target="dm_DR9h1OE6j43ScIx_w-215" edge="1">
          <mxGeometry relative="1" as="geometry" />
        </mxCell>
        <mxCell id="dm_DR9h1OE6j43ScIx_w-217" value="" style="rounded=1;whiteSpace=wrap;html=1;fillColor=#FFFFFF;" parent="1" vertex="1">
          <mxGeometry x="992" y="1088" width="16" height="16" as="geometry" />
        </mxCell>
        <mxCell id="dm_DR9h1OE6j43ScIx_w-218" style="edgeStyle=orthogonalEdgeStyle;rounded=0;orthogonalLoop=1;jettySize=auto;html=1;exitX=1;exitY=0.5;exitDx=0;exitDy=0;entryX=0;entryY=0.5;entryDx=0;entryDy=0;startArrow=none;startFill=0;startSize=3;endSize=3;" parent="1" source="dm_DR9h1OE6j43ScIx_w-217" target="dm_DR9h1OE6j43ScIx_w-217" edge="1">
          <mxGeometry relative="1" as="geometry" />
        </mxCell>
        <mxCell id="dm_DR9h1OE6j43ScIx_w-219" style="edgeStyle=orthogonalEdgeStyle;rounded=0;orthogonalLoop=1;jettySize=auto;html=1;entryX=0;entryY=0.5;entryDx=0;entryDy=0;startArrow=none;startFill=0;endSize=3;startSize=3;exitX=1;exitY=0.5;exitDx=0;exitDy=0;strokeWidth=2;" parent="1" source="dm_DR9h1OE6j43ScIx_w-191" target="dm_DR9h1OE6j43ScIx_w-220" edge="1">
          <mxGeometry relative="1" as="geometry">
            <mxPoint x="944" y="1096" as="sourcePoint" />
            <Array as="points">
              <mxPoint x="944" y="1096" />
              <mxPoint x="944" y="1160" />
            </Array>
          </mxGeometry>
        </mxCell>
        <mxCell id="dm_DR9h1OE6j43ScIx_w-220" value="" style="rounded=1;whiteSpace=wrap;html=1;fillColor=#FFFFFF;" parent="1" vertex="1">
          <mxGeometry x="992" y="1152" width="16" height="16" as="geometry" />
        </mxCell>
        <mxCell id="dm_DR9h1OE6j43ScIx_w-221" style="edgeStyle=orthogonalEdgeStyle;rounded=0;orthogonalLoop=1;jettySize=auto;html=1;exitX=0;exitY=0.5;exitDx=0;exitDy=0;entryX=1;entryY=0.5;entryDx=0;entryDy=0;startArrow=none;startFill=0;startSize=3;endSize=3;" parent="1" source="dm_DR9h1OE6j43ScIx_w-220" target="dm_DR9h1OE6j43ScIx_w-220" edge="1">
          <mxGeometry relative="1" as="geometry" />
        </mxCell>
        <mxCell id="dm_DR9h1OE6j43ScIx_w-222" value="vld" style="text;html=1;strokeColor=none;fillColor=none;align=left;verticalAlign=middle;whiteSpace=wrap;rounded=0;fontSize=8;" parent="1" vertex="1">
          <mxGeometry x="1008" y="1056" width="48" height="16" as="geometry" />
        </mxCell>
        <mxCell id="dm_DR9h1OE6j43ScIx_w-223" value="rdy" style="text;html=1;strokeColor=none;fillColor=none;align=left;verticalAlign=middle;whiteSpace=wrap;rounded=0;fontSize=8;" parent="1" vertex="1">
          <mxGeometry x="1008" y="1088" width="48" height="16" as="geometry" />
        </mxCell>
        <mxCell id="dm_DR9h1OE6j43ScIx_w-224" value="data" style="text;html=1;strokeColor=none;fillColor=none;align=left;verticalAlign=middle;whiteSpace=wrap;rounded=0;fontSize=8;" parent="1" vertex="1">
          <mxGeometry x="1008" y="1152" width="48" height="16" as="geometry" />
        </mxCell>
        <mxCell id="dm_DR9h1OE6j43ScIx_w-225" style="edgeStyle=orthogonalEdgeStyle;rounded=0;orthogonalLoop=1;jettySize=auto;html=1;exitX=0;exitY=0.5;exitDx=0;exitDy=0;entryX=0;entryY=0.5;entryDx=0;entryDy=0;startArrow=diamondThin;startFill=0;endSize=3;startSize=3;" parent="1" target="dm_DR9h1OE6j43ScIx_w-226" edge="1">
          <mxGeometry relative="1" as="geometry">
            <mxPoint x="960" y="1096" as="sourcePoint" />
            <Array as="points">
              <mxPoint x="960" y="1128" />
            </Array>
          </mxGeometry>
        </mxCell>
        <mxCell id="dm_DR9h1OE6j43ScIx_w-226" value="" style="rounded=1;whiteSpace=wrap;html=1;fillColor=#FFFFFF;" parent="1" vertex="1">
          <mxGeometry x="992" y="1120" width="16" height="16" as="geometry" />
        </mxCell>
        <mxCell id="dm_DR9h1OE6j43ScIx_w-227" style="edgeStyle=orthogonalEdgeStyle;rounded=0;orthogonalLoop=1;jettySize=auto;html=1;exitX=0;exitY=0.5;exitDx=0;exitDy=0;entryX=1;entryY=0.5;entryDx=0;entryDy=0;startArrow=none;startFill=0;startSize=3;endSize=3;" parent="1" source="dm_DR9h1OE6j43ScIx_w-226" target="dm_DR9h1OE6j43ScIx_w-226" edge="1">
          <mxGeometry relative="1" as="geometry" />
        </mxCell>
        <mxCell id="dm_DR9h1OE6j43ScIx_w-228" value="dst" style="text;html=1;strokeColor=none;fillColor=none;align=left;verticalAlign=middle;whiteSpace=wrap;rounded=0;fontSize=8;" parent="1" vertex="1">
          <mxGeometry x="1008" y="1120" width="48" height="16" as="geometry" />
        </mxCell>
        <mxCell id="dm_DR9h1OE6j43ScIx_w-230" value="&lt;u&gt;slave[1]&lt;/u&gt;" style="rounded=1;whiteSpace=wrap;html=1;fillColor=#E6E6E6;verticalAlign=top;" parent="1" vertex="1">
          <mxGeometry x="96" y="1024" width="64" height="160" as="geometry" />
        </mxCell>
        <mxCell id="dm_DR9h1OE6j43ScIx_w-231" value="" style="rounded=1;whiteSpace=wrap;html=1;fillColor=#FFFFFF;" parent="1" vertex="1">
          <mxGeometry x="96" y="1056" width="16" height="16" as="geometry" />
        </mxCell>
        <mxCell id="dm_DR9h1OE6j43ScIx_w-232" style="edgeStyle=orthogonalEdgeStyle;rounded=0;orthogonalLoop=1;jettySize=auto;html=1;exitX=0;exitY=0.5;exitDx=0;exitDy=0;entryX=1;entryY=0.5;entryDx=0;entryDy=0;startArrow=none;startFill=0;startSize=3;endSize=3;" parent="1" source="dm_DR9h1OE6j43ScIx_w-231" target="dm_DR9h1OE6j43ScIx_w-231" edge="1">
          <mxGeometry relative="1" as="geometry" />
        </mxCell>
        <mxCell id="dm_DR9h1OE6j43ScIx_w-233" value="" style="rounded=1;whiteSpace=wrap;html=1;fillColor=#FFFFFF;" parent="1" vertex="1">
          <mxGeometry x="96" y="1088" width="16" height="16" as="geometry" />
        </mxCell>
        <mxCell id="dm_DR9h1OE6j43ScIx_w-234" style="edgeStyle=orthogonalEdgeStyle;rounded=0;orthogonalLoop=1;jettySize=auto;html=1;exitX=1;exitY=0.5;exitDx=0;exitDy=0;entryX=0;entryY=0.5;entryDx=0;entryDy=0;startArrow=none;startFill=0;startSize=3;endSize=3;" parent="1" source="dm_DR9h1OE6j43ScIx_w-233" target="dm_DR9h1OE6j43ScIx_w-233" edge="1">
          <mxGeometry relative="1" as="geometry" />
        </mxCell>
        <mxCell id="dm_DR9h1OE6j43ScIx_w-235" value="" style="rounded=1;whiteSpace=wrap;html=1;fillColor=#FFFFFF;" parent="1" vertex="1">
          <mxGeometry x="96" y="1152" width="16" height="16" as="geometry" />
        </mxCell>
        <mxCell id="dm_DR9h1OE6j43ScIx_w-236" style="edgeStyle=orthogonalEdgeStyle;rounded=0;orthogonalLoop=1;jettySize=auto;html=1;exitX=0;exitY=0.5;exitDx=0;exitDy=0;entryX=1;entryY=0.5;entryDx=0;entryDy=0;startArrow=none;startFill=0;startSize=3;endSize=3;" parent="1" source="dm_DR9h1OE6j43ScIx_w-235" target="dm_DR9h1OE6j43ScIx_w-235" edge="1">
          <mxGeometry relative="1" as="geometry" />
        </mxCell>
        <mxCell id="dm_DR9h1OE6j43ScIx_w-237" style="edgeStyle=orthogonalEdgeStyle;rounded=0;orthogonalLoop=1;jettySize=auto;html=1;exitX=1;exitY=0.5;exitDx=0;exitDy=0;endSize=3;startSize=3;endArrow=diamondThin;endFill=0;" parent="1" source="dm_DR9h1OE6j43ScIx_w-238" edge="1">
          <mxGeometry relative="1" as="geometry">
            <mxPoint x="208" y="1096" as="targetPoint" />
          </mxGeometry>
        </mxCell>
        <mxCell id="dm_DR9h1OE6j43ScIx_w-238" value="vld" style="text;html=1;strokeColor=none;fillColor=none;align=left;verticalAlign=middle;whiteSpace=wrap;rounded=0;fontSize=8;" parent="1" vertex="1">
          <mxGeometry x="112" y="1056" width="48" height="16" as="geometry" />
        </mxCell>
        <mxCell id="dm_DR9h1OE6j43ScIx_w-239" style="edgeStyle=orthogonalEdgeStyle;rounded=0;orthogonalLoop=1;jettySize=auto;html=1;exitX=1;exitY=0.5;exitDx=0;exitDy=0;endSize=3;startSize=3;endArrow=diamondThin;endFill=0;" parent="1" source="dm_DR9h1OE6j43ScIx_w-240" edge="1">
          <mxGeometry relative="1" as="geometry">
            <mxPoint x="208" y="1096.003717472119" as="targetPoint" />
          </mxGeometry>
        </mxCell>
        <mxCell id="dm_DR9h1OE6j43ScIx_w-240" value="rdy" style="text;html=1;strokeColor=none;fillColor=none;align=left;verticalAlign=middle;whiteSpace=wrap;rounded=0;fontSize=8;" parent="1" vertex="1">
          <mxGeometry x="112" y="1088" width="48" height="16" as="geometry" />
        </mxCell>
        <mxCell id="dm_DR9h1OE6j43ScIx_w-241" style="edgeStyle=orthogonalEdgeStyle;rounded=0;orthogonalLoop=1;jettySize=auto;html=1;exitX=1;exitY=0.5;exitDx=0;exitDy=0;endSize=3;startSize=3;endArrow=classic;endFill=1;entryX=0;entryY=0.5;entryDx=0;entryDy=0;strokeWidth=2;" parent="1" source="dm_DR9h1OE6j43ScIx_w-242" target="dm_DR9h1OE6j43ScIx_w-250" edge="1">
          <mxGeometry relative="1" as="geometry">
            <mxPoint x="208" y="1096" as="targetPoint" />
            <Array as="points">
              <mxPoint x="208" y="1160" />
              <mxPoint x="208" y="1096" />
            </Array>
          </mxGeometry>
        </mxCell>
        <mxCell id="dm_DR9h1OE6j43ScIx_w-242" value="data" style="text;html=1;strokeColor=none;fillColor=none;align=left;verticalAlign=middle;whiteSpace=wrap;rounded=0;fontSize=8;" parent="1" vertex="1">
          <mxGeometry x="112" y="1152" width="48" height="16" as="geometry" />
        </mxCell>
        <mxCell id="dm_DR9h1OE6j43ScIx_w-243" value="" style="rounded=1;whiteSpace=wrap;html=1;fillColor=#FFFFFF;" parent="1" vertex="1">
          <mxGeometry x="96" y="1120" width="16" height="16" as="geometry" />
        </mxCell>
        <mxCell id="dm_DR9h1OE6j43ScIx_w-244" style="edgeStyle=orthogonalEdgeStyle;rounded=0;orthogonalLoop=1;jettySize=auto;html=1;exitX=0;exitY=0.5;exitDx=0;exitDy=0;entryX=1;entryY=0.5;entryDx=0;entryDy=0;startArrow=none;startFill=0;startSize=3;endSize=3;" parent="1" source="dm_DR9h1OE6j43ScIx_w-243" target="dm_DR9h1OE6j43ScIx_w-243" edge="1">
          <mxGeometry relative="1" as="geometry" />
        </mxCell>
        <mxCell id="dm_DR9h1OE6j43ScIx_w-245" style="edgeStyle=orthogonalEdgeStyle;rounded=0;orthogonalLoop=1;jettySize=auto;html=1;exitX=1;exitY=0.5;exitDx=0;exitDy=0;endArrow=diamondThin;endFill=0;endSize=3;startSize=3;" parent="1" source="dm_DR9h1OE6j43ScIx_w-246" edge="1">
          <mxGeometry relative="1" as="geometry">
            <mxPoint x="208" y="1144" as="targetPoint" />
            <Array as="points">
              <mxPoint x="168" y="1128" />
              <mxPoint x="168" y="1144" />
            </Array>
          </mxGeometry>
        </mxCell>
        <mxCell id="dm_DR9h1OE6j43ScIx_w-246" value="dst" style="text;html=1;strokeColor=none;fillColor=none;align=left;verticalAlign=middle;whiteSpace=wrap;rounded=0;fontSize=8;" parent="1" vertex="1">
          <mxGeometry x="112" y="1120" width="48" height="16" as="geometry" />
        </mxCell>
        <mxCell id="dm_DR9h1OE6j43ScIx_w-247" style="edgeStyle=orthogonalEdgeStyle;rounded=0;orthogonalLoop=1;jettySize=auto;html=1;exitX=1;exitY=0.5;exitDx=0;exitDy=0;endArrow=diamondThin;endFill=0;endSize=3;startSize=3;" parent="1" source="dm_DR9h1OE6j43ScIx_w-248" edge="1">
          <mxGeometry relative="1" as="geometry">
            <mxPoint x="208" y="1128" as="targetPoint" />
          </mxGeometry>
        </mxCell>
        <mxCell id="dm_DR9h1OE6j43ScIx_w-248" value="src" style="text;html=1;strokeColor=none;fillColor=none;align=center;verticalAlign=middle;whiteSpace=wrap;rounded=0;fontSize=8;" parent="1" vertex="1">
          <mxGeometry x="176" y="1120" width="16" height="16" as="geometry" />
        </mxCell>
        <mxCell id="dm_DR9h1OE6j43ScIx_w-249" value="&lt;u&gt;ds_fifo&lt;/u&gt;" style="rounded=0;whiteSpace=wrap;html=1;verticalAlign=top;strokeWidth=2;" parent="1" vertex="1">
          <mxGeometry x="224" y="1056" width="128" height="96" as="geometry" />
        </mxCell>
        <mxCell id="dm_DR9h1OE6j43ScIx_w-250" value="" style="rounded=1;whiteSpace=wrap;html=1;fillColor=#FFFFFF;" parent="1" vertex="1">
          <mxGeometry x="224" y="1088" width="16" height="16" as="geometry" />
        </mxCell>
        <mxCell id="dm_DR9h1OE6j43ScIx_w-251" style="edgeStyle=orthogonalEdgeStyle;rounded=0;orthogonalLoop=1;jettySize=auto;html=1;exitX=0;exitY=0.5;exitDx=0;exitDy=0;entryX=1;entryY=0.5;entryDx=0;entryDy=0;startArrow=none;startFill=0;startSize=3;endSize=3;" parent="1" source="dm_DR9h1OE6j43ScIx_w-250" target="dm_DR9h1OE6j43ScIx_w-250" edge="1">
          <mxGeometry relative="1" as="geometry" />
        </mxCell>
        <mxCell id="dm_DR9h1OE6j43ScIx_w-252" value="Slave&lt;br&gt;FIFO" style="text;html=1;strokeColor=none;fillColor=none;align=center;verticalAlign=middle;whiteSpace=wrap;rounded=0;" parent="1" vertex="1">
          <mxGeometry x="256" y="1088" width="64" height="64" as="geometry" />
        </mxCell>
        <mxCell id="dm_DR9h1OE6j43ScIx_w-253" value="if_ds" style="text;html=1;strokeColor=none;fillColor=none;align=left;verticalAlign=middle;whiteSpace=wrap;rounded=0;fontSize=8;" parent="1" vertex="1">
          <mxGeometry x="240" y="1088" width="48" height="16" as="geometry" />
        </mxCell>
        <mxCell id="dm_DR9h1OE6j43ScIx_w-254" value="" style="rounded=1;whiteSpace=wrap;html=1;fillColor=#FFFFFF;" parent="1" vertex="1">
          <mxGeometry x="336" y="1088" width="16" height="16" as="geometry" />
        </mxCell>
        <mxCell id="dm_DR9h1OE6j43ScIx_w-255" style="edgeStyle=orthogonalEdgeStyle;rounded=0;orthogonalLoop=1;jettySize=auto;html=1;exitX=0;exitY=0.5;exitDx=0;exitDy=0;entryX=1;entryY=0.5;entryDx=0;entryDy=0;startArrow=none;startFill=0;startSize=3;endSize=3;" parent="1" source="dm_DR9h1OE6j43ScIx_w-254" target="dm_DR9h1OE6j43ScIx_w-254" edge="1">
          <mxGeometry relative="1" as="geometry" />
        </mxCell>
        <mxCell id="dm_DR9h1OE6j43ScIx_w-256" value="if_ds" style="text;html=1;strokeColor=none;fillColor=none;align=right;verticalAlign=middle;whiteSpace=wrap;rounded=0;fontSize=8;" parent="1" vertex="1">
          <mxGeometry x="288" y="1088" width="48" height="16" as="geometry" />
        </mxCell>
        <mxCell id="dm_DR9h1OE6j43ScIx_w-257" style="edgeStyle=orthogonalEdgeStyle;rounded=0;orthogonalLoop=1;jettySize=auto;html=1;exitX=0;exitY=0.5;exitDx=0;exitDy=0;endSize=3;startSize=3;endArrow=diamondThin;endFill=0;" parent="1" source="dm_DR9h1OE6j43ScIx_w-262" edge="1">
          <mxGeometry relative="1" as="geometry">
            <mxPoint x="944" y="904" as="targetPoint" />
          </mxGeometry>
        </mxCell>
        <mxCell id="dm_DR9h1OE6j43ScIx_w-258" value="&lt;u&gt;master[0]&lt;/u&gt;" style="rounded=1;whiteSpace=wrap;html=1;fillColor=#E6E6E6;verticalAlign=top;" parent="1" vertex="1">
          <mxGeometry x="992" y="832" width="64" height="160" as="geometry" />
        </mxCell>
        <mxCell id="dm_DR9h1OE6j43ScIx_w-259" style="edgeStyle=orthogonalEdgeStyle;rounded=0;orthogonalLoop=1;jettySize=auto;html=1;exitX=0;exitY=0.5;exitDx=0;exitDy=0;entryX=0;entryY=0.5;entryDx=0;entryDy=0;startArrow=diamondThin;startFill=0;endSize=3;startSize=3;" parent="1" target="dm_DR9h1OE6j43ScIx_w-260" edge="1">
          <mxGeometry relative="1" as="geometry">
            <mxPoint x="976" y="904" as="sourcePoint" />
            <Array as="points">
              <mxPoint x="976" y="872" />
            </Array>
          </mxGeometry>
        </mxCell>
        <mxCell id="dm_DR9h1OE6j43ScIx_w-260" value="" style="rounded=1;whiteSpace=wrap;html=1;fillColor=#FFFFFF;" parent="1" vertex="1">
          <mxGeometry x="992" y="864" width="16" height="16" as="geometry" />
        </mxCell>
        <mxCell id="dm_DR9h1OE6j43ScIx_w-261" style="edgeStyle=orthogonalEdgeStyle;rounded=0;orthogonalLoop=1;jettySize=auto;html=1;exitX=0;exitY=0.5;exitDx=0;exitDy=0;entryX=1;entryY=0.5;entryDx=0;entryDy=0;startArrow=none;startFill=0;startSize=3;endSize=3;" parent="1" source="dm_DR9h1OE6j43ScIx_w-260" target="dm_DR9h1OE6j43ScIx_w-260" edge="1">
          <mxGeometry relative="1" as="geometry" />
        </mxCell>
        <mxCell id="dm_DR9h1OE6j43ScIx_w-262" value="" style="rounded=1;whiteSpace=wrap;html=1;fillColor=#FFFFFF;" parent="1" vertex="1">
          <mxGeometry x="992" y="896" width="16" height="16" as="geometry" />
        </mxCell>
        <mxCell id="dm_DR9h1OE6j43ScIx_w-263" style="edgeStyle=orthogonalEdgeStyle;rounded=0;orthogonalLoop=1;jettySize=auto;html=1;exitX=1;exitY=0.5;exitDx=0;exitDy=0;entryX=0;entryY=0.5;entryDx=0;entryDy=0;startArrow=none;startFill=0;startSize=3;endSize=3;" parent="1" source="dm_DR9h1OE6j43ScIx_w-262" target="dm_DR9h1OE6j43ScIx_w-262" edge="1">
          <mxGeometry relative="1" as="geometry" />
        </mxCell>
        <mxCell id="dm_DR9h1OE6j43ScIx_w-264" style="edgeStyle=orthogonalEdgeStyle;rounded=0;orthogonalLoop=1;jettySize=auto;html=1;entryX=0;entryY=0.5;entryDx=0;entryDy=0;startArrow=none;startFill=0;endSize=3;startSize=3;exitX=1;exitY=0.5;exitDx=0;exitDy=0;strokeWidth=2;" parent="1" source="dm_DR9h1OE6j43ScIx_w-180" target="dm_DR9h1OE6j43ScIx_w-265" edge="1">
          <mxGeometry relative="1" as="geometry">
            <mxPoint x="928" y="904" as="sourcePoint" />
            <Array as="points">
              <mxPoint x="944" y="904" />
              <mxPoint x="944" y="968" />
            </Array>
          </mxGeometry>
        </mxCell>
        <mxCell id="dm_DR9h1OE6j43ScIx_w-265" value="" style="rounded=1;whiteSpace=wrap;html=1;fillColor=#FFFFFF;" parent="1" vertex="1">
          <mxGeometry x="992" y="960" width="16" height="16" as="geometry" />
        </mxCell>
        <mxCell id="dm_DR9h1OE6j43ScIx_w-266" style="edgeStyle=orthogonalEdgeStyle;rounded=0;orthogonalLoop=1;jettySize=auto;html=1;exitX=0;exitY=0.5;exitDx=0;exitDy=0;entryX=1;entryY=0.5;entryDx=0;entryDy=0;startArrow=none;startFill=0;startSize=3;endSize=3;" parent="1" source="dm_DR9h1OE6j43ScIx_w-265" target="dm_DR9h1OE6j43ScIx_w-265" edge="1">
          <mxGeometry relative="1" as="geometry" />
        </mxCell>
        <mxCell id="dm_DR9h1OE6j43ScIx_w-267" value="vld" style="text;html=1;strokeColor=none;fillColor=none;align=left;verticalAlign=middle;whiteSpace=wrap;rounded=0;fontSize=8;" parent="1" vertex="1">
          <mxGeometry x="1008" y="864" width="48" height="16" as="geometry" />
        </mxCell>
        <mxCell id="dm_DR9h1OE6j43ScIx_w-268" value="rdy" style="text;html=1;strokeColor=none;fillColor=none;align=left;verticalAlign=middle;whiteSpace=wrap;rounded=0;fontSize=8;" parent="1" vertex="1">
          <mxGeometry x="1008" y="896" width="48" height="16" as="geometry" />
        </mxCell>
        <mxCell id="dm_DR9h1OE6j43ScIx_w-269" value="data" style="text;html=1;strokeColor=none;fillColor=none;align=left;verticalAlign=middle;whiteSpace=wrap;rounded=0;fontSize=8;" parent="1" vertex="1">
          <mxGeometry x="1008" y="960" width="48" height="16" as="geometry" />
        </mxCell>
        <mxCell id="dm_DR9h1OE6j43ScIx_w-270" style="edgeStyle=orthogonalEdgeStyle;rounded=0;orthogonalLoop=1;jettySize=auto;html=1;exitX=0;exitY=0.5;exitDx=0;exitDy=0;entryX=0;entryY=0.5;entryDx=0;entryDy=0;startArrow=diamondThin;startFill=0;endSize=3;startSize=3;" parent="1" target="dm_DR9h1OE6j43ScIx_w-271" edge="1">
          <mxGeometry relative="1" as="geometry">
            <mxPoint x="960" y="904" as="sourcePoint" />
            <Array as="points">
              <mxPoint x="960" y="936" />
            </Array>
          </mxGeometry>
        </mxCell>
        <mxCell id="dm_DR9h1OE6j43ScIx_w-271" value="" style="rounded=1;whiteSpace=wrap;html=1;fillColor=#FFFFFF;" parent="1" vertex="1">
          <mxGeometry x="992" y="928" width="16" height="16" as="geometry" />
        </mxCell>
        <mxCell id="dm_DR9h1OE6j43ScIx_w-272" style="edgeStyle=orthogonalEdgeStyle;rounded=0;orthogonalLoop=1;jettySize=auto;html=1;exitX=0;exitY=0.5;exitDx=0;exitDy=0;entryX=1;entryY=0.5;entryDx=0;entryDy=0;startArrow=none;startFill=0;startSize=3;endSize=3;" parent="1" source="dm_DR9h1OE6j43ScIx_w-271" target="dm_DR9h1OE6j43ScIx_w-271" edge="1">
          <mxGeometry relative="1" as="geometry" />
        </mxCell>
        <mxCell id="dm_DR9h1OE6j43ScIx_w-273" value="dst" style="text;html=1;strokeColor=none;fillColor=none;align=left;verticalAlign=middle;whiteSpace=wrap;rounded=0;fontSize=8;" parent="1" vertex="1">
          <mxGeometry x="1008" y="928" width="48" height="16" as="geometry" />
        </mxCell>
      </root>
    </mxGraphModel>
  </diagram>
</mxfile>
